<?xml version="1.0" encoding="UTF-8" standalone="no"?>
<!-- Created with Inkscape (http://www.inkscape.org/) -->

<svg
   xmlns:dc="http://purl.org/dc/elements/1.1/"
   xmlns:cc="http://creativecommons.org/ns#"
   xmlns:rdf="http://www.w3.org/1999/02/22-rdf-syntax-ns#"
   xmlns:svg="http://www.w3.org/2000/svg"
   xmlns="http://www.w3.org/2000/svg"
   xmlns:sodipodi="http://sodipodi.sourceforge.net/DTD/sodipodi-0.dtd"
   xmlns:inkscape="http://www.inkscape.org/namespaces/inkscape"
   width="32"
   height="32"
   id="svg2"
   version="1.1"
   inkscape:version="0.48.5 r10040"
   sodipodi:docname="tool_ins_path.svg">
  <defs
     id="defs4" />
  <sodipodi:namedview
     id="base"
     pagecolor="#ffffff"
     bordercolor="#666666"
     borderopacity="1.0"
     inkscape:pageopacity="0.0"
     inkscape:pageshadow="2"
     inkscape:zoom="5.6"
     inkscape:cx="-18.565631"
     inkscape:cy="9.2094416"
     inkscape:document-units="px"
     inkscape:current-layer="layer1"
     showgrid="false"
     inkscape:window-width="1440"
     inkscape:window-height="834"
     inkscape:window-x="0"
     inkscape:window-y="27"
     inkscape:window-maximized="1" />
  <metadata
     id="metadata7">
    <rdf:RDF>
      <cc:Work
         rdf:about="">
        <dc:format>image/svg+xml</dc:format>
        <dc:type
           rdf:resource="http://purl.org/dc/dcmitype/StillImage" />
        <dc:title></dc:title>
      </cc:Work>
    </rdf:RDF>
  </metadata>
  <g
     inkscape:label="Layer 1"
     inkscape:groupmode="layer"
     id="layer1"
     transform="translate(0,-1020.3622)">
    <g
       transform="matrix(0.92387953,0.38268343,-0.38268343,0.92387953,0.4549371,0.21258694)"
       style="font-size:16px;font-style:normal;font-variant:normal;font-weight:normal;font-stretch:normal;text-align:center;line-height:125%;letter-spacing:0px;word-spacing:0px;text-anchor:middle;fill:#000000;fill-opacity:1;stroke:none;font-family:Liberation Sans;-inkscape-font-specification:Sans"
       id="text2985" />
    <path
       id="rect3056"
       transform="translate(0,1020.3622)"
       style="color:#000000;fill:#000000;fill-opacity:1;fill-rule:nonzero;stroke:none;stroke-width:1;marker:none;visibility:visible;display:inline;overflow:visible;enable-background:accumulate"
       d="m 30.102737,15.023929 -4.171397,3.381042 -0.614299,-5.363342 -1.385819,-0.574025 0.725257,6.924652 -5.567403,4.556272 1.422774,0.589333 4.340322,-3.52755 0.685583,5.609347 1.441252,0.596987 -0.810536,-7.241397 5.227697,-4.415562 -1.293431,-0.535757 M 15.50544,8.977531 l -0.451566,1.090178 2.124923,0.880172 -3.88041,9.368138 -2.254266,-0.933747 -0.443913,1.0717 5.949784,2.464481 0.436259,-1.053223 -2.402086,-0.994976 3.888063,-9.386616 2.272744,0.941401 0.451566,-1.090178 -5.691098,-2.35733 M 5.3797208,4.7833206 0.60383161,16.313337 1.8233526,16.818479 5.3976158,8.1894445 5.8353361,13.717772 6.3157535,13.916767 10.731299,10.312137 7.1264211,19.015082 8.3459421,19.520224 13.121831,7.9902077 12.160997,7.592217 6.9256459,12.026256 6.3959883,5.2042724 5.3797208,4.7833206"
       inkscape:connector-curvature="0"
       sodipodi:nodetypes="cccccccccccccccccccccccccccccccccccccccc" />
  </g>
</svg>
